<?xml version="1.0" encoding="UTF-8" standalone="no"?>
<!-- Generator: Adobe Illustrator 16.0.0, SVG Export Plug-In . SVG Version: 6.00 Build 0)  -->

<svg
   xmlns:dc="http://purl.org/dc/elements/1.1/"
   xmlns:cc="http://creativecommons.org/ns#"
   xmlns:rdf="http://www.w3.org/1999/02/22-rdf-syntax-ns#"
   xmlns:svg="http://www.w3.org/2000/svg"
   xmlns="http://www.w3.org/2000/svg"
   xmlns:sodipodi="http://sodipodi.sourceforge.net/DTD/sodipodi-0.dtd"
   xmlns:inkscape="http://www.inkscape.org/namespaces/inkscape"
   version="1.1"
   id="Capa_1"
   x="0px"
   y="0px"
   width="45.645px"
   height="45.645px"
   viewBox="0 0 45.645 45.645"
   style="enable-background:new 0 0 45.645 45.645;"
   xml:space="preserve"
   inkscape:version="0.91 r13725"
   sodipodi:docname="img15.html"><metadata
     id="metadata45"><rdf:RDF><cc:Work
         rdf:about=""><dc:format>image/svg+xml</dc:format><dc:type
           rdf:resource="http://purl.org/dc/dcmitype/StillImage" /></cc:Work></rdf:RDF></metadata><defs
     id="defs43" /><sodipodi:namedview
     pagecolor="#ffffff"
     bordercolor="#666666"
     borderopacity="1"
     objecttolerance="10"
     gridtolerance="10"
     guidetolerance="10"
     inkscape:pageopacity="0"
     inkscape:pageshadow="2"
     inkscape:window-width="726"
     inkscape:window-height="480"
     id="namedview41"
     showgrid="false"
     inkscape:zoom="5.1703362"
     inkscape:cx="22.8225"
     inkscape:cy="22.8225"
     inkscape:window-x="0"
     inkscape:window-y="0"
     inkscape:window-maximized="0"
     inkscape:current-layer="g5" /><g
     id="g5"><path
       inkscape:connector-curvature="0"
       id="path7"
       d="m 44.202,9.868 c 0.795,0 1.442,-0.676 1.442,-1.473 0,-0.795 -0.647,-1.473 -1.442,-1.473 l -8.639,0 0,-1.872 8.639,0 c 0.795,0 1.442,-0.644 1.442,-1.439 0,-0.795 -0.647,-1.439 -1.442,-1.439 l -13.504,0 c -1.042,0 -1.894,0.818 -1.894,1.859 l 0,37.586 c 0,1.04 0.852,1.855 1.894,1.855 l 13.504,0 c 0.795,0 1.442,-0.643 1.442,-1.438 0,-0.795 -0.647,-1.44 -1.442,-1.44 l -8.639,0 0,-1.873 8.639,0 c 0.795,0 1.442,-0.677 1.442,-1.473 0,-0.797 -0.647,-1.473 -1.442,-1.473 l -8.639,0 0,-1.875 8.639,0 c 0.795,0 1.442,-0.645 1.442,-1.438 0,-0.798 -0.647,-1.44 -1.442,-1.44 l -8.639,0 0,-1.939 8.639,0 c 0.795,0 1.442,-0.643 1.442,-1.438 0,-0.797 -0.647,-1.44 -1.442,-1.44 l -8.639,0 0,-1.94 8.639,0 c 0.795,0 1.442,-0.644 1.442,-1.438 0,-0.794 -0.647,-1.439 -1.442,-1.439 l -8.639,0 0,-1.94 8.639,0 c 0.795,0 1.442,-0.644 1.442,-1.44 0,-0.795 -0.647,-1.438 -1.442,-1.438 l -8.639,0 0,-1.941 8.639,0 c 0.795,0 1.442,-0.643 1.442,-1.44 0,-0.795 -0.647,-1.438 -1.442,-1.438 l -8.639,0 0,-1.878 8.639,0 0,-0.005 z"
       style="fill:#8784a0;fill-opacity:1" /><path
       inkscape:connector-curvature="0"
       id="path9"
       d="m 25.5,32.479 c -1.146,-1.076 -2.645,-1.64 -4.216,-1.586 -0.232,0.006 -0.467,0.029 -0.698,0.063 L 16.466,23.915 26.108,7.434 C 26.57,6.644 26.748,5.732 26.599,4.898 26.452,4.061 25.994,3.374 25.325,2.981 L 24.582,2.545 C 24.095,2.26 23.428,2.495 23.09,3.071 L 13.683,19.153 4.272,3.071 C 3.935,2.495 3.268,2.259 2.782,2.545 L 2.039,2.98 C 1.369,3.373 0.911,4.061 0.763,4.897 0.615,5.731 0.793,6.644 1.255,7.434 l 9.642,16.481 -4.121,7.041 c -0.23,-0.034 -0.465,-0.058 -0.699,-0.063 -1.57,-0.054 -3.068,0.51 -4.214,1.586 -1.148,1.071 -1.809,2.529 -1.86,4.102 -0.095,2.85 1.858,5.354 4.644,5.945 0.341,0.074 0.692,0.117 1.044,0.13 1.57,0.052 3.067,-0.511 4.216,-1.585 1.147,-1.074 1.808,-2.531 1.859,-4.104 0.042,-1.244 -0.308,-2.42 -0.944,-3.402 l 2.86,-4.889 2.86,4.889 c -0.637,0.982 -0.987,2.158 -0.945,3.402 0.053,1.571 0.712,3.028 1.86,4.104 1.147,1.074 2.646,1.637 4.215,1.585 0.353,-0.013 0.702,-0.056 1.044,-0.13 2.787,-0.594 4.738,-3.096 4.644,-5.945 C 27.309,35.008 26.646,33.55 25.5,32.479 Z M 8.881,36.871 C 8.856,37.672 8.519,38.414 7.934,38.962 7.349,39.509 6.585,39.797 5.785,39.77 5.605,39.764 5.426,39.745 5.25,39.707 3.833,39.403 2.839,38.128 2.886,36.677 2.913,35.874 3.25,35.132 3.834,34.584 4.419,34.037 5.182,33.75 5.983,33.776 c 0.18,0.007 0.36,0.027 0.534,0.064 1.419,0.305 2.413,1.578 2.364,3.031 z m 4.721,-11.499 c -0.895,0 -1.623,-0.728 -1.623,-1.623 0,-0.895 0.729,-1.622 1.623,-1.622 0.896,0 1.624,0.727 1.624,1.622 0,0.895 -0.729,1.623 -1.624,1.623 z m 8.508,14.333 c -0.173,0.038 -0.354,0.059 -0.534,0.064 -0.8,0.026 -1.563,-0.262 -2.147,-0.809 -0.586,-0.548 -0.923,-1.29 -0.949,-2.091 -0.048,-1.453 0.946,-2.728 2.364,-3.031 0.175,-0.037 0.354,-0.059 0.535,-0.063 0.802,-0.027 1.564,0.26 2.149,0.807 0.585,0.548 0.921,1.29 0.947,2.093 0.049,1.451 -0.946,2.725 -2.365,3.03 z"
       style="fill:#49524e;fill-opacity:1" /></g><g
     id="g11" /><g
     id="g13" /><g
     id="g15" /><g
     id="g17" /><g
     id="g19" /><g
     id="g21" /><g
     id="g23" /><g
     id="g25" /><g
     id="g27" /><g
     id="g29" /><g
     id="g31" /><g
     id="g33" /><g
     id="g35" /><g
     id="g37" /><g
     id="g39" /></svg>