<?xml version="1.0" encoding="UTF-8" standalone="no"?>
<!-- Generator: Adobe Illustrator 18.1.1, SVG Export Plug-In . SVG Version: 6.00 Build 0)  -->

<svg
   xmlns:dc="http://purl.org/dc/elements/1.1/"
   xmlns:cc="http://creativecommons.org/ns#"
   xmlns:rdf="http://www.w3.org/1999/02/22-rdf-syntax-ns#"
   xmlns:svg="http://www.w3.org/2000/svg"
   xmlns="http://www.w3.org/2000/svg"
   xmlns:sodipodi="http://sodipodi.sourceforge.net/DTD/sodipodi-0.dtd"
   xmlns:inkscape="http://www.inkscape.org/namespaces/inkscape"
   version="1.1"
   id="Capa_1"
   x="0px"
   y="0px"
   viewBox="0 0 440 440"
   style="enable-background:new 0 0 440 440;"
   xml:space="preserve"
   inkscape:version="0.91 r13725"
   sodipodi:docname="img12.svg"><metadata
     id="metadata46"><rdf:RDF><cc:Work
         rdf:about=""><dc:format>image/svg+xml</dc:format><dc:type
           rdf:resource="http://purl.org/dc/dcmitype/StillImage" /></cc:Work></rdf:RDF></metadata><defs
     id="defs44" /><sodipodi:namedview
     pagecolor="#ffffff"
     bordercolor="#666666"
     borderopacity="1"
     objecttolerance="10"
     gridtolerance="10"
     guidetolerance="10"
     inkscape:pageopacity="0"
     inkscape:pageshadow="2"
     inkscape:window-width="726"
     inkscape:window-height="480"
     id="namedview42"
     showgrid="false"
     inkscape:zoom="0.53636364"
     inkscape:cx="220"
     inkscape:cy="220"
     inkscape:window-x="0"
     inkscape:window-y="0"
     inkscape:window-maximized="0"
     inkscape:current-layer="Layer_1_85_" /><g
     id="Layer_1_85_"><path
       d="m 165.877,215.476 c -1.715,-3.751 -10.725,-24.116 -17.08,-51.345 -6.563,-28.114 -11.37,-69.195 2.995,-105.232 3.438,-8.623 7.773,-16.553 12.974,-23.783 -17.712,0.269 -34.225,5.158 -49.334,14.661 -29.668,18.659 -48.357,51.999 -58.813,76.685 -10.854,25.63 -15.224,46.934 -15.666,49.166 -5.229,19.961 -4.464,38.505 2.272,55.117 6.085,15.012 16.906,28.153 32.168,39.08 8.746,18.914 13.293,32.731 13.355,35.884 L 60.574,412.68 c -1.695,6.439 2.164,13.06 8.604,14.754 l 46.191,12.166 c 6.439,1.697 13.06,-2.161 14.756,-8.604 l 28.142,-106.85 c 0.73,-1.082 4.271,-5.674 17.7,-16.109 4.32,-3.358 8.559,-6.459 11.632,-8.659 18.666,-1.991 34.556,-8.101 47.247,-18.167 1.316,-1.043 2.583,-2.143 3.826,-3.268 -11.978,-2.325 -22.965,-6.556 -32.827,-12.679 -17.824,-11.066 -31.269,-27.816 -39.968,-49.788 z m -30.785,101.82 -25.249,95.87 -22.834,-6.016 25.251,-95.867 c 1.071,-4.069 1.259,-9.916 -3.572,-23.945 6.462,2.469 13.28,4.655 20.37,6.521 7.063,1.86 14.045,3.313 20.859,4.347 -11.023,9.76 -13.741,14.972 -14.825,19.09 z"
       id="path8"
       inkscape:connector-curvature="0"
       style="fill:#bd7880;fill-opacity:1" /><path
       d="M 401.643,363.635 361.438,260.714 c -0.049,-1.302 0.109,-7.101 4.812,-23.444 1.514,-5.259 3.112,-10.259 4.299,-13.849 13.912,-12.604 23.151,-26.902 27.476,-42.511 4.789,-17.276 3.421,-35.783 -4.062,-55.013 -0.692,-2.168 -7.478,-22.83 -21.199,-47.046 C 359.547,55.527 337.16,24.547 305.552,9.412 280.289,-2.685 252.902,-3.123 224.153,8.108 c -28.75,11.231 -48.587,30.115 -58.96,56.134 -12.979,32.553 -8.442,70.506 -2.349,96.611 6.327,27.106 15.346,46.895 16.306,48.958 7.531,19.21 19.074,33.745 34.304,43.2 13.763,8.545 30.247,12.791 49.02,12.63 18.209,10.131 30.021,18.617 31.929,21.129 l 40.25,103.034 c 2.424,6.204 9.442,9.279 15.646,6.858 l 44.49,-17.383 c 6.202,-2.424 9.277,-9.44 6.854,-15.644 z M 287.734,134.428 c -12.215,0 -22.116,-9.903 -22.116,-22.116 0,-12.215 9.901,-22.115 22.116,-22.115 12.213,0 22.115,9.9 22.115,22.115 0.001,12.212 -9.902,22.116 -22.115,22.116 z m 65.021,235.338 -36.071,-92.343 c -1.529,-3.918 -4.825,-8.753 -16.995,-17.245 6.679,-1.811 13.474,-4.063 20.304,-6.727 6.806,-2.662 13.3,-5.598 19.415,-8.779 -3.156,14.381 -2.282,20.196 -0.732,24.162 l 36.074,92.34 -21.995,8.592 z"
       id="path10"
       inkscape:connector-curvature="0"
       style="fill:#49524e;fill-opacity:1" /></g><g
     id="g12" /><g
     id="g14" /><g
     id="g16" /><g
     id="g18" /><g
     id="g20" /><g
     id="g22" /><g
     id="g24" /><g
     id="g26" /><g
     id="g28" /><g
     id="g30" /><g
     id="g32" /><g
     id="g34" /><g
     id="g36" /><g
     id="g38" /><g
     id="g40" /></svg>