<?xml version="1.0" encoding="UTF-8" standalone="no"?>
<!-- Generator: Adobe Illustrator 17.1.0, SVG Export Plug-In . SVG Version: 6.00 Build 0)  -->

<svg
   xmlns:dc="http://purl.org/dc/elements/1.1/"
   xmlns:cc="http://creativecommons.org/ns#"
   xmlns:rdf="http://www.w3.org/1999/02/22-rdf-syntax-ns#"
   xmlns:svg="http://www.w3.org/2000/svg"
   xmlns="http://www.w3.org/2000/svg"
   xmlns:sodipodi="http://sodipodi.sourceforge.net/DTD/sodipodi-0.dtd"
   xmlns:inkscape="http://www.inkscape.org/namespaces/inkscape"
   version="1.1"
   id="Capa_1"
   x="0px"
   y="0px"
   viewBox="0 0 404.242 404.242"
   style="enable-background:new 0 0 404.242 404.242;"
   xml:space="preserve"
   inkscape:version="0.91 r13725"
   sodipodi:docname="1-laudry.html"><metadata
     id="metadata55"><rdf:RDF><cc:Work
         rdf:about=""><dc:format>image/svg+xml</dc:format><dc:type
           rdf:resource="http://purl.org/dc/dcmitype/StillImage" /><dc:title></dc:title></cc:Work></rdf:RDF></metadata><defs
     id="defs53" /><sodipodi:namedview
     pagecolor="#ffffff"
     bordercolor="#666666"
     borderopacity="1"
     objecttolerance="10"
     gridtolerance="10"
     guidetolerance="10"
     inkscape:pageopacity="0"
     inkscape:pageshadow="2"
     inkscape:window-width="1366"
     inkscape:window-height="706"
     id="namedview51"
     showgrid="false"
     inkscape:zoom="0.5838087"
     inkscape:cx="202.121"
     inkscape:cy="202.121"
     inkscape:window-x="-8"
     inkscape:window-y="-8"
     inkscape:window-maximized="1"
     inkscape:current-layer="g3" /><g
     id="g3"><circle
       style="fill:#49524e;fill-opacity:1"
       cx="64.029"
       cy="59.148"
       r="9.924"
       id="circle5" /><circle
       style="fill:#49524e;fill-opacity:1"
       cx="95.873"
       cy="59.148"
       r="9.924"
       id="circle7" /><circle
       style="fill:#49524e;fill-opacity:1"
       cx="276.525"
       cy="59.148"
       r="9.924"
       id="circle9" /><circle
       style="fill:#49524e;fill-opacity:1"
       cx="308.369"
       cy="59.148"
       r="9.924"
       id="circle11" /><circle
       style="fill:#49524e;fill-opacity:1"
       cx="340.213"
       cy="59.148"
       r="9.924"
       id="circle13" /><path
       style="fill:#6088a4;fill-opacity:1"
       d="M202.121,329.305c48.353,0,87.689-39.337,87.689-87.689c0-48.352-39.337-87.689-87.689-87.689   c-48.352,0-87.69,39.337-87.69,87.689C114.432,289.967,153.769,329.305,202.121,329.305z M202.121,171.871   c38.518,0,69.742,31.227,69.742,69.744c0,0.511-0.027,1.015-0.039,1.522c-3.096,2.583-6.671,4.867-12.798,4.867   c-7.296,0-10.977-3.235-14.534-6.361c-3.541-3.114-6.886-6.054-13.714-6.054c-6.828,0-10.172,2.94-13.712,6.054   c-3.558,3.126-7.236,6.361-14.532,6.361c-7.293,0-10.972-3.235-14.529-6.361c-3.54-3.114-6.886-6.054-13.71-6.054   c-6.826,0-10.172,2.94-13.712,6.052c-3.556,3.128-7.236,6.363-14.531,6.363c-6.698,0-10.346-2.729-13.653-5.595   c-0.003-0.266-0.02-0.528-0.02-0.795C132.379,203.098,163.603,171.871,202.121,171.871z"
       id="path15" /><path
       style="fill:#49524e;fill-opacity:1"
       d="M31.797,404.242h340.648V78.988H31.797V404.242z M202.121,133.926   c59.38,0,107.689,48.309,107.689,107.689c0,59.38-48.31,107.689-107.689,107.689c-59.38,0-107.69-48.309-107.69-107.689   C94.432,182.235,142.741,133.926,202.121,133.926z"
       id="path17" /><rect
       x="31.797"
       y="0"
       style="fill:#49524e;fill-opacity:1"
       width="340.648"
       height="35"
       id="rect19" /></g><g
     id="g21" /><g
     id="g23" /><g
     id="g25" /><g
     id="g27" /><g
     id="g29" /><g
     id="g31" /><g
     id="g33" /><g
     id="g35" /><g
     id="g37" /><g
     id="g39" /><g
     id="g41" /><g
     id="g43" /><g
     id="g45" /><g
     id="g47" /><g
     id="g49" /></svg>