<?xml version="1.0" encoding="UTF-8" standalone="no"?>
<!-- Generator: Adobe Illustrator 18.1.1, SVG Export Plug-In . SVG Version: 6.00 Build 0)  -->

<svg
   xmlns:dc="http://purl.org/dc/elements/1.1/"
   xmlns:cc="http://creativecommons.org/ns#"
   xmlns:rdf="http://www.w3.org/1999/02/22-rdf-syntax-ns#"
   xmlns:svg="http://www.w3.org/2000/svg"
   xmlns="http://www.w3.org/2000/svg"
   xmlns:sodipodi="http://sodipodi.sourceforge.net/DTD/sodipodi-0.dtd"
   xmlns:inkscape="http://www.inkscape.org/namespaces/inkscape"
   version="1.1"
   id="Capa_1"
   x="0px"
   y="0px"
   viewBox="0 0 284.485 284.485"
   style="enable-background:new 0 0 284.485 284.485;"
   xml:space="preserve"
   inkscape:version="0.91 r13725"
   sodipodi:docname="img10.svg"><metadata
     id="metadata4894"><rdf:RDF><cc:Work
         rdf:about=""><dc:format>image/svg+xml</dc:format><dc:type
           rdf:resource="http://purl.org/dc/dcmitype/StillImage" /></cc:Work></rdf:RDF></metadata><defs
     id="defs4892" /><sodipodi:namedview
     pagecolor="#ffffff"
     bordercolor="#666666"
     borderopacity="1"
     objecttolerance="10"
     gridtolerance="10"
     guidetolerance="10"
     inkscape:pageopacity="0"
     inkscape:pageshadow="2"
     inkscape:window-width="726"
     inkscape:window-height="480"
     id="namedview4890"
     showgrid="false"
     inkscape:zoom="0.82956926"
     inkscape:cx="142.24249"
     inkscape:cy="142.24249"
     inkscape:window-x="0"
     inkscape:window-y="0"
     inkscape:window-maximized="0"
     inkscape:current-layer="g4852" /><g
     id="g4852"><path
       d="M107.338,115.994C89.839,82.788,164.515,15.089,107.338,0C123.48,30.464,49.971,100.822,107.338,115.994z"
       id="path4854"
       style="fill:#bd7880;fill-opacity:1" /><path
       d="M149.024,117.781c-10.559-22.766,41.603-65.439,3.934-77.451C162.705,61.218,111.234,105.705,149.024,117.781z"
       id="path4856"
       style="fill:#a96c73;fill-opacity:1" /><path
       d="M266.307,166.769c-7.908-11.629-21.764-18.222-38.071-18.083c0.042-1.742,0.067-3.487,0.067-5.236c0-2.762-2.238-5-5-5   H16.555c-2.761,0-5,2.238-5,5c0,29.956,6.111,58.967,17.675,83.893c12.041,25.957,29.171,45.508,49.536,56.54   c0.732,0.396,1.551,0.604,2.382,0.604h77.562c0.831,0,1.649-0.208,2.382-0.604c13.142-7.119,24.925-17.803,34.874-31.449   c38.257-0.489,64.814-23.741,73.364-45.374C275.025,192.652,273.923,177.967,266.307,166.769z M61.355,224.665   c-0.886,0.411-1.816,0.605-2.732,0.605c-2.452,0-4.8-1.394-5.9-3.765c-6.571-14.156-10.044-30.595-10.044-47.539   c0-3.59,2.91-6.5,6.5-6.5c3.59,0,6.5,2.91,6.5,6.5c0,15.066,3.056,29.612,8.836,42.065   C66.025,219.288,64.611,223.153,61.355,224.665z M90.785,252.062c-1.177,2.172-3.413,3.406-5.721,3.406   c-1.045,0-2.106-0.253-3.09-0.786c-6.175-3.344-11.855-7.975-16.883-13.763c-2.354-2.711-2.065-6.816,0.645-9.17   c2.71-2.354,6.815-2.064,9.17,0.645c4.001,4.606,8.462,8.259,13.26,10.858C91.322,244.961,92.495,248.906,90.785,252.062z    M247.217,198.317c-4.678,11.838-17.964,23.788-36.304,28.386c7.612-16.587,12.816-34.96,15.429-54.205   c0.678-0.018,1.343-0.032,1.981-0.04l0.473-0.003c8.022,0,14.527,2.801,17.848,7.685   C249.808,184.792,250.012,191.248,247.217,198.317z"
       id="path4858"
       style="fill:#49524e;fill-opacity:1" /></g><g
     id="g4860" /><g
     id="g4862" /><g
     id="g4864" /><g
     id="g4866" /><g
     id="g4868" /><g
     id="g4870" /><g
     id="g4872" /><g
     id="g4874" /><g
     id="g4876" /><g
     id="g4878" /><g
     id="g4880" /><g
     id="g4882" /><g
     id="g4884" /><g
     id="g4886" /><g
     id="g4888" /></svg>