<?xml version="1.0" encoding="UTF-8" standalone="no"?>
<!-- Generator: Adobe Illustrator 16.0.0, SVG Export Plug-In . SVG Version: 6.00 Build 0)  -->

<svg
   xmlns:dc="http://purl.org/dc/elements/1.1/"
   xmlns:cc="http://creativecommons.org/ns#"
   xmlns:rdf="http://www.w3.org/1999/02/22-rdf-syntax-ns#"
   xmlns:svg="http://www.w3.org/2000/svg"
   xmlns="http://www.w3.org/2000/svg"
   xmlns:sodipodi="http://sodipodi.sourceforge.net/DTD/sodipodi-0.dtd"
   xmlns:inkscape="http://www.inkscape.org/namespaces/inkscape"
   version="1.1"
   id="Capa_1"
   x="0px"
   y="0px"
   width="480.455px"
   height="480.455px"
   viewBox="0 0 480.455 480.455"
   style="enable-background:new 0 0 480.455 480.455;"
   xml:space="preserve"
   inkscape:version="0.91 r13725"
   sodipodi:docname="1-pet.html"><metadata
     id="metadata45"><rdf:RDF><cc:Work
         rdf:about=""><dc:format>image/svg+xml</dc:format><dc:type
           rdf:resource="http://purl.org/dc/dcmitype/StillImage" /><dc:title></dc:title></cc:Work></rdf:RDF></metadata><defs
     id="defs43" /><sodipodi:namedview
     pagecolor="#ffffff"
     bordercolor="#666666"
     borderopacity="1"
     objecttolerance="10"
     gridtolerance="10"
     guidetolerance="10"
     inkscape:pageopacity="0"
     inkscape:pageshadow="2"
     inkscape:window-width="1366"
     inkscape:window-height="706"
     id="namedview41"
     showgrid="false"
     inkscape:zoom="0.49120106"
     inkscape:cx="240.22749"
     inkscape:cy="240.22749"
     inkscape:window-x="-8"
     inkscape:window-y="-8"
     inkscape:window-maximized="1"
     inkscape:current-layer="g5" /><g
     id="g3"><g
       id="g5"><path
         d="M236.154,44.328l224.33,267.652l19.972-16.742L249.539,19.728c-3.463-4.125-8.485-6.431-13.67-6.416    c-5.235,0.048-10.173,2.481-13.548,6.667L0,295.432l20.279,16.366L236.154,44.328z"
         id="path7"
         style="fill:#d0c28d;fill-opacity:1" /><path
         d="M232.876,68.73L64.439,277.42L97.73,467.144h268.231l48.978-189.724L239.97,68.667    C237.987,66.298,234.821,66.329,232.876,68.73z M178.176,214.984c15.044-7.853,36.239,3.042,47.337,24.326    c11.093,21.272,7.901,44.885-7.14,52.73c-15.043,7.855-36.231-3.042-47.329-24.324    C159.936,246.439,163.143,222.829,178.176,214.984z M123.09,323.909c-11.093-21.276-7.898-44.89,7.127-52.735    c15.041-7.851,36.244,3.042,47.337,24.329c11.091,21.271,7.899,44.884-7.127,52.729    C155.386,356.078,134.19,345.186,123.09,323.909z M350.23,271.174c15.041,7.846,18.24,31.453,7.135,52.735    c-11.101,21.276-32.286,32.169-47.327,24.323c-15.046-7.846-18.245-31.458-7.134-52.729    C313.999,274.216,335.189,263.323,350.23,271.174z M254.957,239.31c11.091-21.276,32.297-32.171,47.327-24.326    c15.036,7.845,18.235,31.456,7.135,52.732c-11.091,21.277-32.296,32.169-47.337,24.324    C247.057,284.194,243.85,260.582,254.957,239.31z M292.52,351.03c0,2.732-0.279,5.388-0.762,7.978    c14.645,1.6,20.505,19.418,20.505,34.495c0,16.143-13.081,29.244-29.239,29.244c-14.462,0-22.76-1.747-40.098-10.801    c-3.364,0.848-25.494,10.801-40.101,10.801c-16.147,0-29.236-13.102-29.236-29.244c0-15.646,6.746-33.886,22.198-34.668    c-0.467-2.533-0.751-5.134-0.751-7.805c0-23.841,24.902-48.743,48.743-48.743C267.622,302.287,292.52,327.189,292.52,351.03z"
         id="path9"
         style="fill:#49524e;fill-opacity:1" /></g></g><g
     id="g11" /><g
     id="g13" /><g
     id="g15" /><g
     id="g17" /><g
     id="g19" /><g
     id="g21" /><g
     id="g23" /><g
     id="g25" /><g
     id="g27" /><g
     id="g29" /><g
     id="g31" /><g
     id="g33" /><g
     id="g35" /><g
     id="g37" /><g
     id="g39" /></svg>