<?xml version="1.0" encoding="UTF-8" standalone="no"?>
<!-- Generator: Adobe Illustrator 13.0.0, SVG Export Plug-In . SVG Version: 6.00 Build 14948)  -->

<svg
   xmlns:dc="http://purl.org/dc/elements/1.1/"
   xmlns:cc="http://creativecommons.org/ns#"
   xmlns:rdf="http://www.w3.org/1999/02/22-rdf-syntax-ns#"
   xmlns:svg="http://www.w3.org/2000/svg"
   xmlns="http://www.w3.org/2000/svg"
   xmlns:sodipodi="http://sodipodi.sourceforge.net/DTD/sodipodi-0.dtd"
   xmlns:inkscape="http://www.inkscape.org/namespaces/inkscape"
   version="1.1"
   id="Capa_1"
   x="0px"
   y="0px"
   width="595.275px"
   height="841.89px"
   viewBox="0 0 595.275 841.89"
   enable-background="new 0 0 595.275 841.89"
   xml:space="preserve"
   inkscape:version="0.91 r13725"
   sodipodi:docname="img5.svg"><metadata
     id="metadata3410"><rdf:RDF><cc:Work
         rdf:about=""><dc:format>image/svg+xml</dc:format><dc:type
           rdf:resource="http://purl.org/dc/dcmitype/StillImage" /></cc:Work></rdf:RDF></metadata><defs
     id="defs3408" /><sodipodi:namedview
     pagecolor="#ffffff"
     bordercolor="#666666"
     borderopacity="1"
     objecttolerance="10"
     gridtolerance="10"
     guidetolerance="10"
     inkscape:pageopacity="0"
     inkscape:pageshadow="2"
     inkscape:window-width="1366"
     inkscape:window-height="706"
     id="namedview3406"
     showgrid="false"
     inkscape:zoom="0.28032165"
     inkscape:cx="-299.89036"
     inkscape:cy="420.94501"
     inkscape:window-x="-8"
     inkscape:window-y="-8"
     inkscape:window-maximized="1"
     inkscape:current-layer="g3398" /><g
     id="g3394"><g
       id="g3398"><path
         style="fill:#49524e"
         inkscape:connector-curvature="0"
         id="path3400"
         d="m 229.108,438.345 c 35.104,4.336 67.838,15.523 98.187,29.545 14.719,6.879 30.479,15.893 42.827,22.93 12.36,7.287 24.919,13.863 37.609,20.268 L 330.799,358.78 314.551,330.211 257.136,229.626 c -8.104,-14.192 -26.145,-19.134 -40.35,-11.056 -14.245,8.144 -19.147,26.185 -11.03,40.376 l 63.49,111.325 -16.248,14.417 -97.054,55.346 -2.24,1.252 c 24.998,-5.259 50.814,-6.036 75.404,-2.941 z" /><path
         style="fill:#49524e"
         inkscape:connector-curvature="0"
         id="path3402"
         d="m 470.034,432.152 c 30.651,-17.486 41.313,-56.545 23.865,-87.17 -17.474,-30.572 -56.493,-41.286 -87.131,-23.799 -30.599,17.487 -41.378,56.559 -23.878,87.118 17.448,30.691 56.572,41.339 87.144,23.851 z" /><path
         style="fill:#6088a4;fill-opacity:1"
         inkscape:connector-curvature="0"
         id="path3404"
         d="m 591.059,479.882 c -9.066,30.084 -23.378,58.021 -43.764,72.451 -19.832,14.441 -42.458,15.338 -67.351,10.33 -24.84,-5.217 -50.603,-15.838 -75.825,-28.555 -12.769,-6.445 -25.327,-13.033 -37.714,-20.359 -12.348,-7.037 -28.147,-16.037 -42.867,-22.916 C 293.217,476.825 260.457,465.61 225.325,461.274 190.47,456.899 152.967,459.786 119.113,473.227 85.18,486.444 56.426,509.649 36.528,536.954 16.959,564.576 3.4,595.173 0,627.195 38.044,576.83 86.563,540.711 136.929,532.25 c 50.207,-9.211 102.47,5.918 153.151,29.756 13.204,5.996 24.326,12.045 38.874,19.846 14.641,7.367 29.597,14.549 44.988,20.545 30.915,11.912 64.162,21.689 100.783,21.939 18.198,0.053 37.504,-2.477 55.729,-10.027 18.356,-7.381 34.775,-20.4 45.45,-35.988 20.874,-32.05 23.035,-67.63 15.155,-98.439 z" /></g></g></svg>